# File created by Blade
# Date/Time:  Wed Apr 08 14:10:35 2015
# Frame Rate: 120.000 fps
#------------------------------------------------------
:FULLY-SPECIFIED
:DEGREES
272
root 1.807729 32.755932 -17.721407 12.301900 5.237228 -4.564679
Spine -3.875710 -8.660811 1.013249
Head 8.451418 -5.332694 4.306867
LeftShoulder -7.692833 41.588924 14.143196
LeftArm 64.439783 21.945548 -61.426618
LeftForeArm -4.448413 -0.000000 10.491280
LeftHand 6.959297 -0.000000 -7.709300
LeftHandThumb1 -26.253704 0.000000 33.147579
RightShoulder -0.216487 -6.087845 -15.003239
RightArm 20.124152 -24.546512 84.609874
RightForeArm -3.445207 -0.000000 21.258701
RightHand 6.678898 -0.000000 4.859054
RightHandThumb1 -24.326973 -0.000000 -32.862282
LeftUpLeg -7.730924 0.672213 -0.111521
LeftLeg 1.285835 -0.000000 -0.000000
LeftFoot -11.689701 5.965392 -21.264823
LeftToeBase -2.493528 -0.000000 0.000000
RightUpLeg -47.483302 2.175985 2.108340
RightLeg -0.417933 -0.000000 0.000000
RightFoot 34.843475 -17.202814 -1.176979
RightToeBase 6.397736 -0.000000 -0.000000
273
root 1.812022 32.741375 -17.637892 12.476938 5.345805 -4.360673
Spine -3.923200 -8.660588 0.868023
Head 8.216863 -5.371997 4.339402
LeftShoulder -7.591229 41.451681 14.229001
LeftArm 64.745385 22.060875 -61.266782
LeftForeArm -4.397201 -0.000000 10.636818
LeftHand 7.086001 -0.000000 -7.719815
LeftHandThumb1 -26.253704 0.000000 33.147579
RightShoulder -0.204076 -6.038660 -14.997619
RightArm 20.250327 -24.621632 84.479491
RightForeArm -3.571369 -0.000000 21.402450
RightHand 6.710516 -0.000000 4.780902
RightHandThumb1 -24.326973 -0.000000 -32.862282
LeftUpLeg -7.813219 0.624359 -0.310767
LeftLeg 1.434065 -0.000000 -0.000000
LeftFoot -11.729577 5.947631 -20.933018
LeftToeBase -2.873934 -0.000000 0.000000
RightUpLeg -47.664971 1.971343 2.045956
RightLeg -0.162100 -0.000000 0.000000
RightFoot 35.212585 -17.032110 -1.220239
RightToeBase 6.689670 -0.000000 -0.000000
274
root 1.807855 32.727733 -17.542678 12.590426 5.495135 -4.229681
Spine -3.926499 -8.674814 0.788911
Head 8.005977 -5.423612 4.374325
LeftShoulder -7.475490 41.313332 14.314989
LeftArm 65.032611 22.178278 -61.096132
LeftForeArm -4.331461 -0.000000 10.823489
LeftHand 7.126865 -0.000000 -7.508872
LeftHandThumb1 -26.253704 0.000000 33.147579
RightShoulder -0.195738 -5.998002 -14.980008
RightArm 20.371912 -24.713068 84.344640
RightForeArm -3.726625 -0.000000 21.515295
RightHand 6.862025 -0.000000 4.586353
RightHandThumb1 -24.326973 -0.000000 -32.862282
LeftUpLeg -7.819867 0.542062 -0.399504
LeftLeg 1.573845 -0.000000 -0.000000
LeftFoot -11.798022 5.889442 -20.588215
LeftToeBase -3.240235 -0.000000 0.000000
RightUpLeg -47.753673 1.938177 1.872704
RightLeg 0.126147 -0.000000 -0.000000
RightFoot 35.512732 -17.130415 -1.196717
RightToeBase 7.052712 -0.000000 -0.000000
275
root 1.799998 32.714154 -17.439641 12.683915 5.611611 -4.116711
Spine -3.919320 -8.657545 0.704693
Head 7.837460 -5.463729 4.422959
LeftShoulder -7.376054 41.195018 14.402256
LeftArm 65.298864 22.281078 -60.972219
LeftForeArm -4.447167 -0.000000 11.015767
LeftHand 7.544893 -0.000000 -8.381998
LeftHandThumb1 -26.253704 0.000000 33.147579
RightShoulder -0.185504 -5.953749 -14.956024
RightArm 20.488810 -24.761938 84.248848
RightForeArm -3.894767 -0.000000 21.598180
RightHand 6.907848 0.000000 4.393745
RightHandThumb1 -24.326973 -0.000000 -32.862282
LeftUpLeg -7.794324 0.520022 -0.469740
LeftLeg 1.718518 -0.000000 -0.000000
LeftFoot -11.856687 5.772816 -20.302244
LeftToeBase -3.658695 -0.000000 0.000000
RightUpLeg -47.783721 1.968631 1.687779
RightLeg 0.409178 -0.000000 -0.000000
RightFoot 35.813153 -17.188018 -1.165875
RightToeBase 7.411735 -0.000000 -0.000000
276
root 1.794081 32.701341 -17.334314 12.793477 5.700820 -3.998688
Spine -3.933849 -8.615454 0.623746
Head 7.672352 -5.531278 4.451709
LeftShoulder -7.290766 41.126802 14.467776
LeftArm 65.638022 22.383212 -60.782097
LeftForeArm -4.442353 -0.000000 11.199649
LeftHand 7.652353 -0.000000 -8.336285
LeftHandThumb1 -26.253704 0.000000 33.147579
RightShoulder -0.147961 -5.897723 -14.939050
RightArm 20.596419 -24.915973 84.141707
RightForeArm -4.200907 -0.000000 21.741028
RightHand 6.702663 -0.000000 3.957221
RightHandThumb1 -24.326973 -0.000000 -32.862282
LeftUpLeg -7.778827 0.506080 -0.555263
LeftLeg 1.864008 -0.000000 -0.000000
LeftFoot -11.911352 5.701172 -20.033179
LeftToeBase -4.077099 -0.000000 0.000000
RightUpLeg -47.808055 1.965896 1.565369
RightLeg 0.694816 -0.000000 -0.000000
RightFoot 36.169631 -17.218707 -1.266407
RightToeBase 7.455813 -0.000000 -0.000000
277
root 1.792892 32.689013 -17.232088 12.924854 5.893877 -3.883309
Spine -3.943848 -8.684066 0.603745
Head 7.458485 -5.579075 4.463242
LeftShoulder -7.214689 40.999338 14.515205
LeftArm 65.898072 22.488015 -60.685058
LeftForeArm -4.396393 -0.000000 11.417297
LeftHand 7.735422 -0.000000 -8.151953
LeftHandThumb1 -26.253704 0.000000 33.147579
RightShoulder -0.122095 -5.820401 -14.954732
RightArm 20.726375 -25.058563 84.001158
RightForeArm -4.272836 -0.000000 21.787669
RightHand 6.919375 -0.000000 3.866426
RightHandThumb1 -24.326973 -0.000000 -32.862282
LeftUpLeg -7.808957 0.271484 -0.618859
LeftLeg 2.027541 -0.000000 -0.000000
LeftFoot -11.986967 5.813885 -19.658813
LeftToeBase -4.573917 -0.000000 0.000000
RightUpLeg -47.841348 1.796760 1.510886
RightLeg 1.002870 -0.000000 -0.000000
RightFoot 36.521424 -17.362938 -1.024929
RightToeBase 7.280928 -0.000000 -0.000000
278
root 1.792580 32.675923 -17.124139 13.038511 6.065888 -3.760643
Spine -3.942905 -8.716624 0.568945
Head 7.263790 -5.647009 4.463351
LeftShoulder -7.087408 40.836241 14.610470
LeftArm 66.078693 22.605130 -60.656016
LeftForeArm -4.308640 -0.000000 11.669610
LeftHand 7.831317 -0.000000 -7.955034
LeftHandThumb1 -26.253704 0.000000 33.147579
RightShoulder -0.089293 -5.795671 -14.982183
RightArm 20.891825 -25.129514 83.876080
RightForeArm -4.022864 0.000000 21.859107
RightHand 7.205339 -0.000000 4.903093
RightHandThumb1 -24.326973 -0.000000 -32.862282
LeftUpLeg -7.803442 0.061642 -0.700724
LeftLeg 2.176139 -0.000000 -0.000000
LeftFoot -12.047682 5.941924 -19.261603
LeftToeBase -5.055696 -0.000000 0.000000
RightUpLeg -47.808418 1.668878 1.438073
RightLeg 1.259629 -0.000000 -0.000000
RightFoot 36.913222 -17.428457 -1.058850
RightToeBase 7.343944 -0.000000 -0.000000
279
root 1.792878 32.662503 -17.009225 13.155478 6.211318 -3.626351
Spine -3.957092 -8.752327 0.525150
Head 7.101360 -5.666819 4.443699
LeftShoulder -7.029010 40.802113 14.637990
LeftArm 66.366066 22.662985 -60.590861
LeftForeArm -4.134734 -0.000000 11.899587
LeftHand 7.907367 -0.000000 -7.796997
LeftHandThumb1 -26.253704 0.000000 33.147579
RightShoulder -0.041742 -5.759350 -15.016129
RightArm 21.049343 -25.250276 83.762250
RightForeArm -4.137824 -0.000000 21.925759
RightHand 7.195935 -0.000000 4.787980
RightHandThumb1 -24.326973 -0.000000 -32.862282
LeftUpLeg -7.765228 -0.174352 -0.803083
LeftLeg 2.285504 -0.000000 -0.000000
LeftFoot -12.092371 6.182562 -18.753179
LeftToeBase -5.488888 -0.000000 0.000000
RightUpLeg -47.751550 1.562860 1.341104
RightLeg 1.511883 -0.000000 -0.000000
RightFoot 37.254185 -17.517542 -1.028246
RightToeBase 7.516122 -0.000000 -0.000000
280
root 1.792733 32.649062 -16.892468 13.296060 6.319518 -3.512355
Spine -3.998060 -8.749528 0.502832
Head 6.920142 -5.704484 4.414042
LeftShoulder -6.967367 40.722807 14.672194
LeftArm 66.597733 22.760987 -60.531790
LeftForeArm -4.094636 -0.000000 12.151572
LeftHand 8.002015 0.000000 -7.693493
LeftHandThumb1 -26.253704 0.000000 33.147579
RightShoulder 0.009591 -5.725169 -15.066831
RightArm 21.201639 -25.342612 83.680676
RightForeArm -4.330471 -0.000000 21.978419
RightHand 7.292900 0.000000 4.715351
RightHandThumb1 -24.326973 -0.000000 -32.862282
LeftUpLeg -7.745942 -0.334730 -0.908992
LeftLeg 2.389394 -0.000000 -0.000000
LeftFoot -12.154621 6.430938 -18.229676
LeftToeBase -5.912567 -0.000000 0.000000
RightUpLeg -47.688926 1.545827 1.197519
RightLeg 1.724560 -0.000000 -0.000000
RightFoot 37.517544 -17.775165 -0.827113
RightToeBase 7.881561 -0.000000 -0.000000
281
root 1.790173 32.635785 -16.777902 13.454912 6.451667 -3.432636
Spine -4.049272 -8.813211 0.544319
Head 6.745859 -5.693149 4.340211
LeftShoulder -6.961922 40.659467 14.659003
LeftArm 66.803554 22.816013 -60.515630
LeftForeArm -3.985925 0.000000 12.422671
LeftHand 8.138901 -0.000000 -7.602605
LeftHandThumb1 -26.253704 0.000000 33.147579
RightShoulder 0.112281 -5.611857 -15.168916
RightArm 21.267208 -25.455918 83.632447
RightForeArm -4.775147 -0.000000 22.126391
RightHand 7.000156 -0.000000 2.899717
RightHandThumb1 -24.326973 -0.000000 -32.862282
LeftUpLeg -7.764056 -0.585624 -0.964182
LeftLeg 2.528171 -0.000000 -0.000000
LeftFoot -12.292342 6.740754 -17.755995
LeftToeBase -6.258087 -0.000000 0.000000
RightUpLeg -47.666302 1.160382 1.456297
RightLeg 1.970114 -0.000000 -0.000000
RightFoot 37.817697 -17.456557 -0.818159
RightToeBase 8.298885 -0.000000 -0.000000
